<?xml version="1.0" encoding="UTF-8" standalone="no"?>
<!DOCTYPE svg PUBLIC "-//W3C//DTD SVG 1.1//EN"
 "http://www.w3.org/Graphics/SVG/1.1/DTD/svg11.dtd">
<!-- Generated by graphviz version 2.38.0 (20140413.2041)
 -->
<!-- Title: controllers_diagram Pages: 1 -->
<svg width="360pt" height="401pt"
 viewBox="0.00 0.00 360.12 401.00" xmlns="http://www.w3.org/2000/svg" xmlns:xlink="http://www.w3.org/1999/xlink">
<g id="graph0" class="graph" transform="scale(1 1) rotate(0) translate(68.4346 269.5)">
<title>controllers_diagram</title>
<polygon fill="none" stroke="none" points="-68.4346,131.5 -68.4346,-269.5 291.688,-269.5 291.688,131.5 -68.4346,131.5"/>
<!-- _diagram_info -->
<g id="node1" class="node"><title>_diagram_info</title>
<text text-anchor="start" x="88.3123" y="20.9" font-family="Times,serif" font-size="13.00">Controllers diagram</text>
<text text-anchor="start" x="88.3123" y="33.9" font-family="Times,serif" font-size="13.00">Date: Oct 29 2016 &#45; 17:32</text>
<text text-anchor="start" x="88.3123" y="46.9" font-family="Times,serif" font-size="13.00">Migration version: 20161027060241</text>
<text text-anchor="start" x="88.3123" y="59.9" font-family="Times,serif" font-size="13.00">Generated by RailRoady 1.5.2</text>
<text text-anchor="start" x="88.3123" y="72.9" font-family="Times,serif" font-size="13.00">http://railroady.prestonlee.com</text>
</g>
<!-- ApplicationController -->
<g id="node2" class="node"><title>ApplicationController</title>
<path fill="none" stroke="black" d="M92.1792,-33C92.1792,-33 207.821,-33 207.821,-33 213.821,-33 219.821,-39 219.821,-45 219.821,-45 219.821,-113 219.821,-113 219.821,-119 213.821,-125 207.821,-125 207.821,-125 92.1792,-125 92.1792,-125 86.1792,-125 80.1792,-119 80.1792,-113 80.1792,-113 80.1792,-45 80.1792,-45 80.1792,-39 86.1792,-33 92.1792,-33"/>
<text text-anchor="middle" x="150" y="-109.8" font-family="Times,serif" font-size="14.00">ApplicationController</text>
<polyline fill="none" stroke="black" points="80.1792,-103 219.821,-103 "/>
<polyline fill="none" stroke="black" points="80.1792,-79 219.821,-79 "/>
<polyline fill="none" stroke="black" points="80.1792,-55 219.821,-55 "/>
<text text-anchor="start" x="88.1792" y="-39.8" font-family="Times,serif" font-size="14.00">_layout</text>
</g>
<!-- DebugController -->
<g id="node3" class="node"><title>DebugController</title>
<path fill="none" stroke="black" d="M-52.4346,-145C-52.4346,-145 34.4346,-145 34.4346,-145 40.4346,-145 46.4346,-151 46.4346,-157 46.4346,-157 46.4346,-251 46.4346,-251 46.4346,-257 40.4346,-263 34.4346,-263 34.4346,-263 -52.4346,-263 -52.4346,-263 -58.4346,-263 -64.4346,-257 -64.4346,-251 -64.4346,-251 -64.4346,-157 -64.4346,-157 -64.4346,-151 -58.4346,-145 -52.4346,-145"/>
<text text-anchor="middle" x="-9" y="-247.8" font-family="Times,serif" font-size="14.00">DebugController</text>
<polyline fill="none" stroke="black" points="-64.4346,-241 46.4346,-241 "/>
<text text-anchor="start" x="-56.4346" y="-225.8" font-family="Times,serif" font-size="14.00">hello</text>
<text text-anchor="start" x="-56.4346" y="-211.8" font-family="Times,serif" font-size="14.00">product</text>
<text text-anchor="start" x="-56.4346" y="-197.8" font-family="Times,serif" font-size="14.00">products</text>
<polyline fill="none" stroke="black" points="-64.4346,-191 46.4346,-191 "/>
<polyline fill="none" stroke="black" points="-64.4346,-167 46.4346,-167 "/>
<text text-anchor="start" x="-56.4346" y="-151.8" font-family="Times,serif" font-size="14.00">_layout</text>
</g>
<!-- ProfileController -->
<g id="node4" class="node"><title>ProfileController</title>
<path fill="none" stroke="black" d="M171.559,-161C171.559,-161 258.441,-161 258.441,-161 264.441,-161 270.441,-167 270.441,-173 270.441,-173 270.441,-253 270.441,-253 270.441,-259 264.441,-265 258.441,-265 258.441,-265 171.559,-265 171.559,-265 165.559,-265 159.559,-259 159.559,-253 159.559,-253 159.559,-173 159.559,-173 159.559,-167 165.559,-161 171.559,-161"/>
<text text-anchor="middle" x="215" y="-249.8" font-family="Times,serif" font-size="14.00">ProfileController</text>
<polyline fill="none" stroke="black" points="159.559,-243 270.441,-243 "/>
<text text-anchor="start" x="167.559" y="-227.8" font-family="Times,serif" font-size="14.00">login</text>
<text text-anchor="start" x="167.559" y="-213.8" font-family="Times,serif" font-size="14.00">show</text>
<polyline fill="none" stroke="black" points="159.559,-207 270.441,-207 "/>
<polyline fill="none" stroke="black" points="159.559,-183 270.441,-183 "/>
<text text-anchor="start" x="167.559" y="-167.8" font-family="Times,serif" font-size="14.00">_layout</text>
</g>
<!-- RequestController -->
<g id="node5" class="node"><title>RequestController</title>
<path fill="none" stroke="black" d="M-52.3242,127C-52.3242,127 42.3242,127 42.3242,127 48.3242,127 54.3242,121 54.3242,115 54.3242,115 54.3242,-105 54.3242,-105 54.3242,-111 48.3242,-117 42.3242,-117 42.3242,-117 -52.3242,-117 -52.3242,-117 -58.3242,-117 -64.3242,-111 -64.3242,-105 -64.3242,-105 -64.3242,115 -64.3242,115 -64.3242,121 -58.3242,127 -52.3242,127"/>
<text text-anchor="middle" x="-5" y="-101.8" font-family="Times,serif" font-size="14.00">RequestController</text>
<polyline fill="none" stroke="black" points="-64.3242,-95 54.3242,-95 "/>
<text text-anchor="start" x="-56.3242" y="-79.8" font-family="Times,serif" font-size="14.00">accept</text>
<text text-anchor="start" x="-56.3242" y="-65.8" font-family="Times,serif" font-size="14.00">cancel</text>
<text text-anchor="start" x="-56.3242" y="-51.8" font-family="Times,serif" font-size="14.00">complete</text>
<text text-anchor="start" x="-56.3242" y="-37.8" font-family="Times,serif" font-size="14.00">create</text>
<text text-anchor="start" x="-56.3242" y="-23.8" font-family="Times,serif" font-size="14.00">edit</text>
<text text-anchor="start" x="-56.3242" y="-9.8" font-family="Times,serif" font-size="14.00">nearby</text>
<text text-anchor="start" x="-56.3242" y="4.2" font-family="Times,serif" font-size="14.00">pay</text>
<text text-anchor="start" x="-56.3242" y="18.2" font-family="Times,serif" font-size="14.00">reject</text>
<text text-anchor="start" x="-56.3242" y="32.2" font-family="Times,serif" font-size="14.00">show</text>
<polyline fill="none" stroke="black" points="-64.3242,39 54.3242,39 "/>
<polyline fill="none" stroke="black" points="-64.3242,63 54.3242,63 "/>
<text text-anchor="start" x="-56.3242" y="78.2" font-family="Times,serif" font-size="14.00">_layout</text>
<text text-anchor="start" x="-56.3242" y="92.2" font-family="Times,serif" font-size="14.00">creation_params</text>
<text text-anchor="start" x="-56.3242" y="106.2" font-family="Times,serif" font-size="14.00">edit_params</text>
<text text-anchor="start" x="-56.3242" y="120.2" font-family="Times,serif" font-size="14.00">handle_action</text>
</g>
</g>
</svg>
