<?xml version="1.0" encoding="UTF-8" standalone="no"?>
<!DOCTYPE svg PUBLIC "-//W3C//DTD SVG 1.1//EN"
 "http://www.w3.org/Graphics/SVG/1.1/DTD/svg11.dtd">
<!-- Generated by graphviz version 2.38.0 (20140413.2041)
 -->
<!-- Title: models_diagram Pages: 1 -->
<svg width="395pt" height="253pt"
 viewBox="0.00 0.00 394.99 253.00" xmlns="http://www.w3.org/2000/svg" xmlns:xlink="http://www.w3.org/1999/xlink">
<g id="graph0" class="graph" transform="scale(1 1) rotate(0) translate(4 249)">
<title>models_diagram</title>
<polygon fill="none" stroke="none" points="-4,4 -4,-249 390.991,-249 390.991,4 -4,4"/>
<!-- _diagram_info -->
<g id="node1" class="node"><title>_diagram_info</title>
<text text-anchor="start" x="8" y="-230.6" font-family="Times,serif" font-size="13.00">Models diagram</text>
<text text-anchor="start" x="8" y="-217.6" font-family="Times,serif" font-size="13.00">Date: Oct 29 2016 &#45; 17:32</text>
<text text-anchor="start" x="8" y="-204.6" font-family="Times,serif" font-size="13.00">Migration version: 20161027060241</text>
<text text-anchor="start" x="8" y="-191.6" font-family="Times,serif" font-size="13.00">Generated by RailRoady 1.5.2</text>
<text text-anchor="start" x="8" y="-178.6" font-family="Times,serif" font-size="13.00">http://railroady.prestonlee.com</text>
</g>
<!-- Request -->
<g id="node2" class="node"><title>Request</title>
<ellipse fill="none" stroke="black" cx="158.688" cy="-104" rx="38.6955" ry="18"/>
<text text-anchor="middle" x="158.688" y="-99.8" font-family="Times,serif" font-size="14.00">Request</text>
</g>
<!-- Transaction -->
<g id="node4" class="node"><title>Transaction</title>
<ellipse fill="none" stroke="black" cx="325.688" cy="-18" rx="51.5866" ry="18"/>
<text text-anchor="middle" x="325.688" y="-13.8" font-family="Times,serif" font-size="14.00">Transaction</text>
</g>
<!-- Request&#45;&gt;Transaction -->
<g id="edge1" class="edge"><title>Request&#45;&gt;Transaction</title>
<path fill="none" stroke="#d3311e" d="M191.574,-86.4582C220.084,-72.1179 261.236,-51.419 290.422,-36.7385"/>
<ellipse fill="none" stroke="#d3311e" cx="187.625" cy="-88.4448" rx="4.00002" ry="4.00002"/>
<ellipse fill="#d3311e" stroke="#d3311e" cx="293.996" cy="-34.9408" rx="4.00002" ry="4.00002"/>
<text text-anchor="middle" x="266.295" y="-56.8" font-family="Times,serif" font-size="14.00">trans</text>
</g>
<!-- Review -->
<g id="node3" class="node"><title>Review</title>
<ellipse fill="none" stroke="black" cx="252.688" cy="-104" rx="37.2421" ry="18"/>
<text text-anchor="middle" x="252.688" y="-99.8" font-family="Times,serif" font-size="14.00">Review</text>
</g>
<!-- User -->
<g id="node5" class="node"><title>User</title>
<ellipse fill="none" stroke="black" cx="252.688" cy="-208.5" rx="27" ry="18"/>
<text text-anchor="middle" x="252.688" y="-204.3" font-family="Times,serif" font-size="14.00">User</text>
</g>
<!-- User&#45;&gt;Request -->
<g id="edge2" class="edge"><title>User&#45;&gt;Request</title>
<path fill="none" stroke="#f5c20a" d="M234.631,-185.998C229.32,-180.772 223.179,-175.645 216.688,-172 187.928,-155.849 164.987,-179.999 144.688,-154 139.444,-147.284 140.127,-138.685 143.02,-130.572"/>
<ellipse fill="none" stroke="#f5c20a" cx="237.693" cy="-189.203" rx="4.00002" ry="4.00002"/>
<polygon fill="#f5c20a" stroke="#f5c20a" points="143.05,-130.506 151.301,-123.283 145.129,-125.959 147.209,-121.412 147.209,-121.412 147.209,-121.412 145.129,-125.959 143.116,-119.541 143.05,-130.506 143.05,-130.506"/>
</g>
<!-- User&#45;&gt;Request -->
<g id="edge3" class="edge"><title>User&#45;&gt;Request</title>
<path fill="none" stroke="#a62f6c" d="M233.694,-186.764C228.454,-181.618 222.581,-176.34 216.688,-172 203.029,-161.941 194.846,-166.173 183.032,-154 176.824,-147.603 171.896,-139.311 168.144,-131.374"/>
<ellipse fill="none" stroke="#a62f6c" cx="236.713" cy="-189.829" rx="4.00002" ry="4.00002"/>
<polygon fill="#a62f6c" stroke="#a62f6c" points="168.076,-131.213 168.281,-120.249 166.11,-126.616 164.144,-122.018 164.144,-122.018 164.144,-122.018 166.11,-126.616 160.006,-123.788 168.076,-131.213 168.076,-131.213"/>
<text text-anchor="middle" x="203.515" y="-142.8" font-family="Times,serif" font-size="14.00">actions</text>
</g>
<!-- User&#45;&gt;Review -->
<g id="edge6" class="edge"><title>User&#45;&gt;Review</title>
<path fill="none" stroke="#24e013" d="M236.583,-185.251C229.099,-172.173 222.821,-155.262 227.708,-140 228.869,-136.374 230.559,-132.804 232.521,-129.411"/>
<ellipse fill="none" stroke="#24e013" cx="238.701" cy="-188.683" rx="4.00002" ry="4.00002"/>
<polygon fill="#24e013" stroke="#24e013" points="232.629,-129.25 241.918,-123.423 235.401,-125.089 238.173,-120.928 238.173,-120.928 238.173,-120.928 235.401,-125.089 234.428,-118.432 232.629,-129.25 232.629,-129.25"/>
<text text-anchor="middle" x="242.677" y="-142.8" font-family="Times,serif" font-size="14.00">rated</text>
</g>
<!-- User&#45;&gt;Review -->
<g id="edge7" class="edge"><title>User&#45;&gt;Review</title>
<path fill="none" stroke="#458892" d="M254.866,-182.059C255.682,-169.414 256.282,-153.902 255.688,-140 255.578,-137.441 255.424,-134.779 255.242,-132.118"/>
<ellipse fill="none" stroke="#458892" cx="254.563" cy="-186.31" rx="4" ry="4"/>
<polygon fill="#458892" stroke="#458892" points="255.236,-132.04 258.931,-121.715 254.841,-127.055 254.445,-122.071 254.445,-122.071 254.445,-122.071 254.841,-127.055 249.959,-122.427 255.236,-132.04 255.236,-132.04"/>
<text text-anchor="middle" x="273.015" y="-142.8" font-family="Times,serif" font-size="14.00">rating</text>
</g>
<!-- User&#45;&gt;Transaction -->
<g id="edge4" class="edge"><title>User&#45;&gt;Transaction</title>
<path fill="none" stroke="#fb236a" d="M271.991,-186.618C279.744,-177.246 288.141,-165.681 293.688,-154 310.288,-119.04 318.656,-74.7854 322.586,-46.6743"/>
<ellipse fill="none" stroke="#fb236a" cx="269.367" cy="-189.69" rx="4.00002" ry="4.00002"/>
<polygon fill="#fb236a" stroke="#fb236a" points="322.634,-46.3087 328.388,-36.9739 323.28,-41.3506 323.926,-36.3925 323.926,-36.3925 323.926,-36.3925 323.28,-41.3506 319.463,-35.8112 322.634,-46.3087 322.634,-46.3087"/>
<text text-anchor="middle" x="327.74" y="-99.8" font-family="Times,serif" font-size="14.00">paid</text>
</g>
<!-- User&#45;&gt;Transaction -->
<g id="edge5" class="edge"><title>User&#45;&gt;Transaction</title>
<path fill="none" stroke="#0a58c1" d="M279.358,-191.537C301.33,-176.666 330.879,-152.263 343.688,-122 354.133,-97.3219 346.546,-66.8553 338.251,-45.482"/>
<ellipse fill="none" stroke="#0a58c1" cx="275.865" cy="-193.83" rx="4.00002" ry="4.00002"/>
<polygon fill="#0a58c1" stroke="#0a58c1" points="338.175,-45.2998 338.478,-34.3381 336.25,-40.6852 334.325,-36.0705 334.325,-36.0705 334.325,-36.0705 336.25,-40.6852 330.172,-37.803 338.175,-45.2998 338.175,-45.2998"/>
<text text-anchor="middle" x="368.34" y="-99.8" font-family="Times,serif" font-size="14.00">earned</text>
</g>
</g>
</svg>
