<?xml version="1.0" encoding="UTF-8" standalone="no"?>
<!DOCTYPE svg PUBLIC "-//W3C//DTD SVG 1.1//EN"
 "http://www.w3.org/Graphics/SVG/1.1/DTD/svg11.dtd">
<!-- Generated by graphviz version 2.38.0 (20140413.2041)
 -->
<!-- Title: models_diagram Pages: 1 -->
<svg width="468pt" height="551pt"
 viewBox="0.00 0.00 467.99 551.00" xmlns="http://www.w3.org/2000/svg" xmlns:xlink="http://www.w3.org/1999/xlink">
<g id="graph0" class="graph" transform="scale(1 1) rotate(0) translate(4 547)">
<title>models_diagram</title>
<polygon fill="none" stroke="none" points="-4,4 -4,-547 463.991,-547 463.991,4 -4,4"/>
<!-- _diagram_info -->
<g id="node1" class="node"><title>_diagram_info</title>
<text text-anchor="start" x="8" y="-507.6" font-family="Times,serif" font-size="13.00">Models diagram</text>
<text text-anchor="start" x="8" y="-494.6" font-family="Times,serif" font-size="13.00">Date: Oct 29 2016 &#45; 17:32</text>
<text text-anchor="start" x="8" y="-481.6" font-family="Times,serif" font-size="13.00">Migration version: 20161027060241</text>
<text text-anchor="start" x="8" y="-468.6" font-family="Times,serif" font-size="13.00">Generated by RailRoady 1.5.2</text>
<text text-anchor="start" x="8" y="-455.6" font-family="Times,serif" font-size="13.00">http://railroady.prestonlee.com</text>
</g>
<!-- Request -->
<g id="node2" class="node"><title>Request</title>
<path fill="none" stroke="black" d="M67.1824,-179.5C67.1824,-179.5 176.193,-179.5 176.193,-179.5 182.193,-179.5 188.193,-185.5 188.193,-191.5 188.193,-191.5 188.193,-365.5 188.193,-365.5 188.193,-371.5 182.193,-377.5 176.193,-377.5 176.193,-377.5 67.1824,-377.5 67.1824,-377.5 61.1824,-377.5 55.1824,-371.5 55.1824,-365.5 55.1824,-365.5 55.1824,-191.5 55.1824,-191.5 55.1824,-185.5 61.1824,-179.5 67.1824,-179.5"/>
<text text-anchor="middle" x="121.688" y="-362.3" font-family="Times,serif" font-size="14.00">Request</text>
<polyline fill="none" stroke="black" points="55.1824,-355.5 188.193,-355.5 "/>
<text text-anchor="start" x="63.1824" y="-340.3" font-family="Times,serif" font-size="14.00">id :INTEGER</text>
<text text-anchor="start" x="63.1824" y="-326.3" font-family="Times,serif" font-size="14.00">title :varchar</text>
<text text-anchor="start" x="63.1824" y="-312.3" font-family="Times,serif" font-size="14.00">user_id :integer</text>
<text text-anchor="start" x="63.1824" y="-298.3" font-family="Times,serif" font-size="14.00">amount :float</text>
<text text-anchor="start" x="63.1824" y="-284.3" font-family="Times,serif" font-size="14.00">lat :float</text>
<text text-anchor="start" x="63.1824" y="-270.3" font-family="Times,serif" font-size="14.00">long :float</text>
<text text-anchor="start" x="63.1824" y="-256.3" font-family="Times,serif" font-size="14.00">due :datetime</text>
<text text-anchor="start" x="63.1824" y="-242.3" font-family="Times,serif" font-size="14.00">description :text</text>
<text text-anchor="start" x="63.1824" y="-228.3" font-family="Times,serif" font-size="14.00">created_at :datetime</text>
<text text-anchor="start" x="63.1824" y="-214.3" font-family="Times,serif" font-size="14.00">updated_at :datetime</text>
<text text-anchor="start" x="63.1824" y="-200.3" font-family="Times,serif" font-size="14.00">status :integer</text>
<text text-anchor="start" x="63.1824" y="-186.3" font-family="Times,serif" font-size="14.00">actor_id :integer</text>
</g>
<!-- Transaction -->
<g id="node4" class="node"><title>Transaction</title>
<path fill="none" stroke="black" d="M321.182,-0.5C321.182,-0.5 430.193,-0.5 430.193,-0.5 436.193,-0.5 442.193,-6.5 442.193,-12.5 442.193,-12.5 442.193,-116.5 442.193,-116.5 442.193,-122.5 436.193,-128.5 430.193,-128.5 430.193,-128.5 321.182,-128.5 321.182,-128.5 315.182,-128.5 309.182,-122.5 309.182,-116.5 309.182,-116.5 309.182,-12.5 309.182,-12.5 309.182,-6.5 315.182,-0.5 321.182,-0.5"/>
<text text-anchor="middle" x="375.688" y="-113.3" font-family="Times,serif" font-size="14.00">Transaction</text>
<polyline fill="none" stroke="black" points="309.182,-106.5 442.193,-106.5 "/>
<text text-anchor="start" x="317.182" y="-91.3" font-family="Times,serif" font-size="14.00">id :INTEGER</text>
<text text-anchor="start" x="317.182" y="-77.3" font-family="Times,serif" font-size="14.00">payer_id :integer</text>
<text text-anchor="start" x="317.182" y="-63.3" font-family="Times,serif" font-size="14.00">payee_id :integer</text>
<text text-anchor="start" x="317.182" y="-49.3" font-family="Times,serif" font-size="14.00">amount :float</text>
<text text-anchor="start" x="317.182" y="-35.3" font-family="Times,serif" font-size="14.00">created_at :datetime</text>
<text text-anchor="start" x="317.182" y="-21.3" font-family="Times,serif" font-size="14.00">updated_at :datetime</text>
<text text-anchor="start" x="317.182" y="-7.3" font-family="Times,serif" font-size="14.00">request_id :integer</text>
</g>
<!-- Request&#45;&gt;Transaction -->
<g id="edge1" class="edge"><title>Request&#45;&gt;Transaction</title>
<path fill="none" stroke="#6d7f9c" d="M194.025,-181.487C194.909,-180.647 195.797,-179.818 196.688,-179 228.072,-150.196 267.676,-124.233 301.648,-104.431"/>
<ellipse fill="none" stroke="#6d7f9c" cx="191.089" cy="-184.372" rx="4.00002" ry="4.00002"/>
<ellipse fill="#6d7f9c" stroke="#6d7f9c" cx="305.342" cy="-102.3" rx="4.00002" ry="4.00002"/>
<text text-anchor="middle" x="246.295" y="-149.8" font-family="Times,serif" font-size="14.00">trans</text>
</g>
<!-- Review -->
<g id="node3" class="node"><title>Review</title>
<path fill="none" stroke="black" d="M218.182,-214.5C218.182,-214.5 327.193,-214.5 327.193,-214.5 333.193,-214.5 339.193,-220.5 339.193,-226.5 339.193,-226.5 339.193,-330.5 339.193,-330.5 339.193,-336.5 333.193,-342.5 327.193,-342.5 327.193,-342.5 218.182,-342.5 218.182,-342.5 212.182,-342.5 206.182,-336.5 206.182,-330.5 206.182,-330.5 206.182,-226.5 206.182,-226.5 206.182,-220.5 212.182,-214.5 218.182,-214.5"/>
<text text-anchor="middle" x="272.688" y="-327.3" font-family="Times,serif" font-size="14.00">Review</text>
<polyline fill="none" stroke="black" points="206.182,-320.5 339.193,-320.5 "/>
<text text-anchor="start" x="214.182" y="-305.3" font-family="Times,serif" font-size="14.00">id :INTEGER</text>
<text text-anchor="start" x="214.182" y="-291.3" font-family="Times,serif" font-size="14.00">reviewer_id :integer</text>
<text text-anchor="start" x="214.182" y="-277.3" font-family="Times,serif" font-size="14.00">reviewee_id :integer</text>
<text text-anchor="start" x="214.182" y="-263.3" font-family="Times,serif" font-size="14.00">request_id :integer</text>
<text text-anchor="start" x="214.182" y="-249.3" font-family="Times,serif" font-size="14.00">rating :integer</text>
<text text-anchor="start" x="214.182" y="-235.3" font-family="Times,serif" font-size="14.00">created_at :datetime</text>
<text text-anchor="start" x="214.182" y="-221.3" font-family="Times,serif" font-size="14.00">updated_at :datetime</text>
</g>
<!-- User -->
<g id="node5" class="node"><title>User</title>
<path fill="none" stroke="black" d="M237.182,-428.5C237.182,-428.5 346.193,-428.5 346.193,-428.5 352.193,-428.5 358.193,-434.5 358.193,-440.5 358.193,-440.5 358.193,-530.5 358.193,-530.5 358.193,-536.5 352.193,-542.5 346.193,-542.5 346.193,-542.5 237.182,-542.5 237.182,-542.5 231.182,-542.5 225.182,-536.5 225.182,-530.5 225.182,-530.5 225.182,-440.5 225.182,-440.5 225.182,-434.5 231.182,-428.5 237.182,-428.5"/>
<text text-anchor="middle" x="291.688" y="-527.3" font-family="Times,serif" font-size="14.00">User</text>
<polyline fill="none" stroke="black" points="225.182,-520.5 358.193,-520.5 "/>
<text text-anchor="start" x="233.182" y="-505.3" font-family="Times,serif" font-size="14.00">id :INTEGER</text>
<text text-anchor="start" x="233.182" y="-491.3" font-family="Times,serif" font-size="14.00">name :varchar</text>
<text text-anchor="start" x="233.182" y="-477.3" font-family="Times,serif" font-size="14.00">email :varchar</text>
<text text-anchor="start" x="233.182" y="-463.3" font-family="Times,serif" font-size="14.00">wallet :float</text>
<text text-anchor="start" x="233.182" y="-449.3" font-family="Times,serif" font-size="14.00">created_at :datetime</text>
<text text-anchor="start" x="233.182" y="-435.3" font-family="Times,serif" font-size="14.00">updated_at :datetime</text>
</g>
<!-- User&#45;&gt;Request -->
<g id="edge2" class="edge"><title>User&#45;&gt;Request</title>
<path fill="none" stroke="#37211e" d="M217.71,-428.557C217.369,-428.37 217.028,-428.184 216.688,-428 195.911,-416.768 183.275,-426.813 166.688,-410 159.942,-403.163 154.206,-395.268 149.328,-386.814"/>
<ellipse fill="none" stroke="#37211e" cx="221.404" cy="-430.681" rx="4.00002" ry="4.00002"/>
<polygon fill="#37211e" stroke="#37211e" points="149.242,-386.653 148.522,-375.71 146.895,-382.238 144.549,-377.822 144.549,-377.822 144.549,-377.822 146.895,-382.238 140.575,-379.934 149.242,-386.653 149.242,-386.653"/>
</g>
<!-- User&#45;&gt;Request -->
<g id="edge3" class="edge"><title>User&#45;&gt;Request</title>
<path fill="none" stroke="#78f43e" d="M232.868,-422.338C229.165,-418.195 225.525,-414.057 222.032,-410 212.942,-399.442 203.675,-388.172 194.628,-376.845"/>
<ellipse fill="none" stroke="#78f43e" cx="235.652" cy="-425.43" rx="4.00002" ry="4.00002"/>
<polygon fill="#78f43e" stroke="#78f43e" points="194.621,-376.836 191.93,-366.205 191.513,-372.919 188.405,-369.002 188.405,-369.002 188.405,-369.002 191.513,-372.919 184.88,-371.799 194.621,-376.836 194.621,-376.836"/>
<text text-anchor="middle" x="242.515" y="-398.8" font-family="Times,serif" font-size="14.00">actions</text>
</g>
<!-- User&#45;&gt;Review -->
<g id="edge6" class="edge"><title>User&#45;&gt;Review</title>
<path fill="none" stroke="#a1281f" d="M268.814,-420.633C267.993,-417.063 267.28,-413.503 266.708,-410 263.689,-391.5 263.243,-371.344 264.023,-352.529"/>
<ellipse fill="none" stroke="#a1281f" cx="269.797" cy="-424.564" rx="4.00001" ry="4.00001"/>
<polygon fill="#a1281f" stroke="#a1281f" points="264.023,-352.518 269.048,-342.771 264.289,-347.525 264.554,-342.532 264.554,-342.532 264.554,-342.532 264.289,-347.525 260.06,-342.293 264.023,-352.518 264.023,-352.518"/>
<text text-anchor="middle" x="281.677" y="-398.8" font-family="Times,serif" font-size="14.00">rated</text>
</g>
<!-- User&#45;&gt;Review -->
<g id="edge7" class="edge"><title>User&#45;&gt;Review</title>
<path fill="none" stroke="#3d3c6d" d="M294.439,-420.247C294.536,-416.782 294.62,-413.349 294.688,-410 294.813,-403.779 295.268,-402.195 294.688,-396 293.376,-381.983 291.194,-367.139 288.702,-352.912"/>
<ellipse fill="none" stroke="#3d3c6d" cx="294.312" cy="-424.372" rx="4" ry="4"/>
<polygon fill="#3d3c6d" stroke="#3d3c6d" points="288.631,-352.52 291.267,-341.876 287.735,-347.601 286.84,-342.681 286.84,-342.681 286.84,-342.681 287.735,-347.601 282.413,-343.487 288.631,-352.52 288.631,-352.52"/>
<text text-anchor="middle" x="312.015" y="-398.8" font-family="Times,serif" font-size="14.00">rating</text>
</g>
<!-- User&#45;&gt;Transaction -->
<g id="edge4" class="edge"><title>User&#45;&gt;Transaction</title>
<path fill="none" stroke="#3348aa" d="M331.234,-421.276C338.22,-407.472 344.567,-392.61 348.688,-378 371.174,-298.277 376.471,-202.964 377.067,-138.734"/>
<ellipse fill="none" stroke="#3348aa" cx="329.378" cy="-424.842" rx="4.00002" ry="4.00002"/>
<polygon fill="#3348aa" stroke="#3348aa" points="377.067,-138.7 381.624,-128.726 377.095,-133.7 377.124,-128.7 377.124,-128.7 377.124,-128.7 377.095,-133.7 372.624,-128.674 377.067,-138.7 377.067,-138.7"/>
<text text-anchor="middle" x="388.74" y="-274.3" font-family="Times,serif" font-size="14.00">paid</text>
</g>
<!-- User&#45;&gt;Transaction -->
<g id="edge5" class="edge"><title>User&#45;&gt;Transaction</title>
<path fill="none" stroke="#7a8d68" d="M364.446,-432.624C380.725,-417.081 395.791,-398.611 404.688,-378 437.859,-301.155 420.779,-204.011 401.811,-138.599"/>
<ellipse fill="none" stroke="#7a8d68" cx="361.338" cy="-435.499" rx="4.00002" ry="4.00002"/>
<polygon fill="#7a8d68" stroke="#7a8d68" points="401.742,-138.366 403.194,-127.497 400.312,-133.575 398.882,-128.784 398.882,-128.784 398.882,-128.784 400.312,-133.575 394.57,-130.071 401.742,-138.366 401.742,-138.366"/>
<text text-anchor="middle" x="441.34" y="-274.3" font-family="Times,serif" font-size="14.00">earned</text>
</g>
</g>
</svg>
